<svg width="24" height="24" viewBox="0 0 24 24" fill="none" xmlns="http://www.w3.org/2000/svg">
<path d="M17.25 3C18.2021 2.99987 19.1186 3.32737 19.8136 3.91607C20.5086 4.50476 20.93 5.31059 20.9925 6.17008L21 6.39263V9.85312C21.8038 10.0018 22.5315 10.3848 23.0717 10.9434C23.6119 11.502 23.9348 12.2054 23.991 12.9458L24 13.1779V21.3202C24.0003 21.4898 23.9305 21.6533 23.8042 21.7786C23.678 21.9039 23.5044 21.9819 23.3178 21.9972C23.1311 22.0125 22.9449 21.9641 22.7958 21.8614C22.6466 21.7587 22.5454 21.6092 22.512 21.4424L22.5 21.3202V17.9276H1.5V21.3202C1.50034 21.4898 1.43051 21.6533 1.30424 21.7786C1.17797 21.9039 1.00442 21.9819 0.817767 21.9972C0.631115 22.0125 0.444886 21.9641 0.295753 21.8614C0.146619 21.7587 0.0453904 21.6092 0.0119999 21.4424L7.81713e-08 21.3202V13.1779C-0.000176363 12.3958 0.298337 11.6377 0.84502 11.0318C1.3917 10.4259 2.15298 10.0095 3 9.85312V6.39263C2.99985 5.53129 3.36185 4.70214 4.01256 4.07337C4.66327 3.4446 5.55397 3.06329 6.504 3.00679L6.75 3H17.25ZM20.25 11.1423H3.75C3.19091 11.1423 2.65184 11.3306 2.23784 11.6706C1.82383 12.0105 1.56455 12.4777 1.5105 12.9811L1.5 13.1779V16.5705H22.5V13.1779C22.5 12.6721 22.2919 12.1844 21.9161 11.8098C21.5404 11.4353 21.024 11.2007 20.4675 11.1518L20.25 11.1423ZM17.25 4.35705H6.75C6.19068 4.35708 5.65141 4.54558 5.23737 4.88579C4.82333 5.226 4.56419 5.69353 4.5105 6.19722L4.5 6.39263V9.78527H6V9.10674C6 8.92679 6.07902 8.7542 6.21967 8.62695C6.36032 8.4997 6.55109 8.42821 6.75 8.42821H10.5C10.6989 8.42821 10.8897 8.4997 11.0303 8.62695C11.171 8.7542 11.25 8.92679 11.25 9.10674V9.78527H12.75V9.10674C12.75 8.92679 12.829 8.7542 12.9697 8.62695C13.1103 8.4997 13.3011 8.42821 13.5 8.42821H17.25C17.4489 8.42821 17.6397 8.4997 17.7803 8.62695C17.921 8.7542 18 8.92679 18 9.10674V9.78527H19.5V6.39263C19.5 5.88683 19.2919 5.39913 18.9161 5.02458C18.5404 4.65003 18.024 4.41545 17.4675 4.36655L17.25 4.35705Z" fill="#F8F9FA"/>
</svg>
