<svg width="24" height="24" viewBox="0 0 24 24" fill="none" xmlns="http://www.w3.org/2000/svg">
<g clip-path="url(#clip0_2340_6191)">
<path d="M21.6878 13.0875H3.73934V4.67412C3.73847 4.35727 3.80046 4.04341 3.92171 3.75069C4.04296 3.45796 4.22107 3.1922 4.44573 2.96878L4.46443 2.95008C4.81651 2.59852 5.26854 2.36422 5.75878 2.27921C6.24902 2.1942 6.75354 2.26261 7.20344 2.4751C6.77855 3.18154 6.60195 4.00971 6.70169 4.82802C6.80144 5.64633 7.17181 6.40784 7.75395 6.99153L8.26581 7.50338L7.32366 8.44559L8.38121 9.50314L9.32337 8.56099L14.5438 3.34065L15.486 2.39849L14.4284 1.34089L13.4862 2.28304L12.9743 1.77118C12.3615 1.16006 11.5536 0.783343 10.6916 0.706676C9.82949 0.63001 8.96785 0.858255 8.25679 1.35164C7.50698 0.878113 6.61842 0.673689 5.73706 0.771947C4.85571 0.870206 4.03398 1.2653 3.40687 1.89234L3.38817 1.91103C3.02418 2.27304 2.73559 2.70364 2.53913 3.17793C2.34267 3.65221 2.24223 4.16075 2.24363 4.67412V13.0875H0.747925V14.5832H2.24363V16.0181C2.2436 16.1387 2.26304 16.2585 2.30122 16.3728L3.6926 20.5468C3.76685 20.7702 3.90962 20.9646 4.10065 21.1023C4.29167 21.24 4.52122 21.314 4.7567 21.3138H5.35965L4.81438 23.1835H6.37239L6.91771 21.3138H16.6445L17.2054 23.1835H18.7665L18.2056 21.3138H19.1746C19.4101 21.3141 19.6397 21.2401 19.8307 21.1024C20.0218 20.9647 20.1646 20.7703 20.2388 20.5468L21.6301 16.3728C21.6683 16.2585 21.6878 16.1387 21.6878 16.0181V14.5832H23.1835V13.0875H21.6878ZM8.81165 2.82879C9.22372 2.41762 9.78206 2.1867 10.3642 2.1867C10.9463 2.1867 11.5046 2.41762 11.9167 2.82879L12.4285 3.34065L9.32351 6.44559L8.81165 5.93383C8.40051 5.52175 8.1696 4.96341 8.1696 4.38131C8.1696 3.7992 8.40051 3.24086 8.81165 2.82879ZM20.1921 15.9573L18.9052 19.8181H5.02621L3.73934 15.9573V14.5832H20.1921V15.9573Z" fill="#F8F9FA"/>
</g>
<defs>
<clipPath id="clip0_2340_6191">
<rect width="23.9313" height="23.9313" fill="white"/>
</clipPath>
</defs>
</svg>
