<svg width="24" height="24" viewBox="0 0 24 24" fill="none" xmlns="http://www.w3.org/2000/svg">
<path d="M20.94 1.49561H2.99156C2.16892 1.49561 1.49585 2.16867 1.49585 2.99131V20.9398C1.49585 21.7624 2.16892 22.4355 2.99156 22.4355H14.2094V20.9398C14.2094 18.8458 15.8546 17.2005 17.9486 17.2005V15.7048C15.032 15.7048 12.7136 18.0232 12.7136 20.9398H10.4701V17.9484H8.97438V20.9398H2.99156V2.99131H8.97438V13.4613H10.4701V9.72199H13.4615V8.22628H10.4701V2.99131H20.94V8.22628H17.9486V9.72199H20.94V20.9398H17.9486V22.4355H20.94C21.7627 22.4355 22.4357 21.7624 22.4357 20.9398V2.99131C22.4357 2.16867 21.7627 1.49561 20.94 1.49561Z" fill="#F8F9FA"/>
</svg>
